<?xml version="1.0" standalone="no"?>
<!DOCTYPE svg PUBLIC "-//W3C//DTD SVG 20010904//EN"
 "http://www.w3.org/TR/2001/REC-SVG-20010904/DTD/svg10.dtd">
<svg version="1.0" xmlns="http://www.w3.org/2000/svg"
 width="240.000000pt" height="240.000000pt" viewBox="0 0 240.000000 240.000000"
 preserveAspectRatio="xMidYMid meet">
<metadata>
Created by potrace 1.14, written by Peter Selinger 2001-2017
</metadata>
<g transform="translate(0.000000,240.000000) scale(0.100000,-0.100000)"
fill="#000000" stroke="none">
<path d="M1537 2333 c-30 -32 -70 -74 -87 -93 -41 -44 -231 -248 -288 -309
-24 -25 -90 -95 -145 -155 -56 -60 -118 -126 -137 -147 -99 -105 -239 -255
-267 -288 l-33 -36 717 -3 717 -2 87 92 c49 51 88 96 89 100 0 4 -200 9 -444
10 l-444 3 148 443 c81 243 146 442 145 442 -2 0 -28 -26 -58 -57z"/>
<path d="M313 1022 c-39 -42 -81 -87 -92 -99 l-22 -23 449 -2 449 -3 -147
-443 c-91 -272 -141 -437 -131 -430 8 7 25 24 37 38 12 14 46 50 75 81 30 31
79 83 109 116 142 152 312 334 378 404 40 42 81 86 91 98 11 12 75 81 143 153
142 151 139 148 157 171 13 16 -23 17 -705 17 l-719 0 -72 -78z"/>
</g>
</svg>
